<?xml version="1.0" encoding="UTF-8"?>
<svg version="1.1" xmlns="http://www.w3.org/2000/svg" width="500" height="485">
<path d="M0 0 C1.32 0 2.64 0 4 0 C3.42820944 3.79613557 2.36907816 6.41523873 0.32421875 9.65234375 C-0.21541504 10.5222998 -0.75504883 11.39225586 -1.31103516 12.28857422 C-1.86839355 13.18334473 -2.42575195 14.07811523 -3 15 C-5.08999588 18.50502267 -7.14082461 22.03204981 -9.1875 25.5625 C-9.70763672 26.44357422 -10.22777344 27.32464844 -10.76367188 28.23242188 C-15.75475869 36.86961553 -19.22968335 44.86810201 -18 55 C-15.9450594 61.28570064 -11.44905868 65.22917457 -5.671875 68.1953125 C9.32798627 74.56317813 23.74728919 73.8041305 39.36450195 70.51123047 C56.20704981 66.96424616 73.617153 66.7680999 90.375 71.0625 C104.98177097 74.50100541 122.6430561 74.29861578 136 67 C140.72187586 63.83419687 144.19825303 60.51122602 146 55 C148.15187337 41.7260845 139.84070134 29.39088876 133.3125 18.5 C131.9703827 16.24241139 130.63503843 13.98101293 129.30078125 11.71875 C128.42160034 10.24825195 128.42160034 10.24825195 127.5246582 8.74804688 C126.11745988 6.21170991 125.00631399 3.71652155 124 1 C125.32 1 126.64 1 128 1 C130.02114767 3.05718597 131.77864855 5.06450529 133.5625 7.3125 C137.40642465 11.99959286 141.29633693 16.38161798 145.6875 20.5625 C157.46579928 32.18761331 164.22893186 44.51156093 164.4375 61.3125 C164.44789307 62.05330811 164.45828613 62.79411621 164.46899414 63.55737305 C164.36564314 69.92450763 163.01420934 75.49749749 158.9375 80.5625 C155.44368895 83.46161981 151.77926025 86.01684713 148.01171875 88.546875 C147.34785156 89.02640625 146.68398438 89.5059375 146 90 C146 90.33 146 90.66 146 91 C146.99 90.835 147.98 90.67 149 90.5 C158.27530902 89.3447124 167.88466598 89.6442867 177.140625 90.77734375 C184.06672643 91.31667132 191.05780116 91.06806077 198 91 C197.67 92.32 197.34 93.64 197 95 C195.700625 95.185625 194.40125 95.37125 193.0625 95.5625 C184.00107713 97.66554051 178.70785701 104.18739206 173 111.0625 C165.38741584 120.18781832 158.13056567 125.48923358 146 127 C139.60887135 127.0430379 133.8752765 126.62926738 128 124 C128 123.67 128 123.34 128 123 C129.21558594 122.79503906 130.43117188 122.59007812 131.68359375 122.37890625 C133.26826514 122.10698039 134.85289863 121.83483357 136.4375 121.5625 C137.64116211 121.36043945 137.64116211 121.36043945 138.86914062 121.15429688 C142.75471303 120.79732776 142.75471303 120.79732776 146 119 C141.96132839 119.11872832 137.92286858 119.24300659 133.88452148 119.37231445 C132.51217224 119.4154884 131.13977533 119.45717501 129.76733398 119.49731445 C127.78877932 119.55544392 125.8104003 119.6194571 123.83203125 119.68359375 C122.64327393 119.72025146 121.4545166 119.75690918 120.22973633 119.79467773 C117.38595153 119.97546411 114.77093195 120.35809408 112 121 C112.33 120.01 112.66 119.02 113 118 C109.535 118.495 109.535 118.495 106 119 C106.60323234 115.62189888 107.90192055 113.67744188 110 111 C103.17738048 114.74296488 99.15276673 119.06024239 94.76953125 125.44921875 C91.01891369 130.8557381 86.3505163 134.32807705 81 138 C82.98 137.67 84.96 137.34 87 137 C85.96956821 141.83510302 84.83800281 146.52817576 83.375 151.25 C81.34601413 158.515409 80.81785872 166.69686588 83 174 C82.99097656 173.05382812 82.98195313 172.10765625 82.97265625 171.1328125 C83.1676731 156.75675889 87.63023805 140.51942862 98 130 C104.23010425 125.47286142 109.60398292 123.85439112 117.25 123.9375 C118.32765625 123.94652344 119.4053125 123.95554687 120.515625 123.96484375 C121.33546875 123.97644531 122.1553125 123.98804688 123 124 C122.57847656 124.47050781 122.15695312 124.94101563 121.72265625 125.42578125 C120.90087891 126.35970703 120.90087891 126.35970703 120.0625 127.3125 C119.51722656 127.92738281 118.97195313 128.54226562 118.41015625 129.17578125 C115.92031202 132.39671547 115.84548318 135.5559539 115.55712891 139.49633789 C114.7802903 149.37551726 112.87124399 158.92679703 110.625 168.5625 C110.33286621 169.83391846 110.04073242 171.10533691 109.73974609 172.4152832 C105.16109796 191.55926803 105.16109796 191.55926803 100 195 C98.83864986 197.60592477 98.83864986 197.60592477 97.9375 200.5625 C97.34477166 202.39305458 96.70915363 204.21132505 96 206 C95.34 206.33 94.68 206.66 94 207 C92.68 203.7 91.36 200.4 90 197 C89.67 197 89.34 197 89 197 C89.33 197.515625 89.66 198.03125 90 198.5625 C92.26579512 204.08537561 90.9860082 209.54232704 89.06640625 214.9765625 C87.35627071 218.22143506 85.22229159 219.35305096 82 221 C84.31 221 86.62 221 89 221 C89.26554688 220.46890625 89.53109375 219.9378125 89.8046875 219.390625 C91.53645833 215.92708333 93.26822917 212.46354167 95 209 C96.98619364 215.17926909 97.38491552 218.88217324 95 225 C89.77596451 229.26171317 83.50497387 229.62748944 77 229 C75.46306171 228.55194341 73.94050666 228.0512758 72.4375 227.5 C64.71138863 224.67956834 57.79581653 226.21079621 50 228 C50 228.66 50 229.32 50 230 C51.13695312 229.91621094 52.27390625 229.83242188 53.4453125 229.74609375 C63.10650415 229.08990545 72.34730169 228.99127751 82 230 C80.19587357 233.26460973 79.16605307 234.88929795 76 237 C73.87890625 237.265625 73.87890625 237.265625 71.5625 237.25 C70.80066406 237.25515625 70.03882813 237.2603125 69.25390625 237.265625 C66.78556982 236.9747292 65.142314 236.22975656 63 235 C62.01 235.66 61.02 236.32 60 237 C55.2274756 237.54766673 52.34234297 237.71756619 48.5 234.6875 C46 232 46 232 46 229 C44.1746875 228.8453125 44.1746875 228.8453125 42.3125 228.6875 C38.58609755 228.22500324 36.04120544 227.30394352 33 225 C31.70623422 222.41246844 31.83167603 220.45041015 31.8125 217.5625 C31.79832031 216.59441406 31.78414063 215.62632812 31.76953125 214.62890625 C32 212 32 212 34 209 C34.19335938 209.61488281 34.38671875 210.22976563 34.5859375 210.86328125 C34.84632813 211.67152344 35.10671875 212.47976563 35.375 213.3125 C35.63023437 214.11300781 35.88546875 214.91351563 36.1484375 215.73828125 C36.98831811 218.22724528 36.98831811 218.22724528 39 221 C42.08365871 221.2502157 42.08365871 221.2502157 45 221 C44.05125 220.46375 43.1025 219.9275 42.125 219.375 C38.01377368 216.250468 37.43155136 213.81269944 36.66796875 208.8359375 C36.41076294 206.89489095 36.20147792 204.94761987 36 203 C35.67 204.32 35.34 205.64 35 207 C34.34 207 33.68 207 33 207 C32.68546875 206.16855469 32.3709375 205.33710938 32.046875 204.48046875 C31.61890625 203.39378906 31.1909375 202.30710937 30.75 201.1875 C30.33234375 200.10855469 29.9146875 199.02960938 29.484375 197.91796875 C28.26957389 194.94960513 28.26957389 194.94960513 26.01171875 193.6484375 C22.75805987 190.98233255 22.17555906 187.3924775 21.0625 183.4375 C20.81016602 182.56706055 20.55783203 181.69662109 20.29785156 180.79980469 C16.68297639 167.85065964 13.7558245 154.35847901 12.45703125 140.96484375 C12.38516602 140.22975586 12.31330078 139.49466797 12.23925781 138.73730469 C12.07669351 136.85209766 11.95996727 134.96308585 11.84765625 133.07421875 C10.65838479 128.76105453 8.56534683 127.60635874 5 125 C5 124.67 5 124.34 5 124 C12.24983331 123.6737575 18.51218587 123.49712557 25 127 C25.65484375 127.32097656 26.3096875 127.64195312 26.984375 127.97265625 C34.57445916 132.5473 37.65213335 141.16597316 41 149 C41.28770264 149.64549805 41.57540527 150.29099609 41.87182617 150.95605469 C44.03105679 156.13924222 44.52842356 160.9186894 44.6875 166.5 C44.72166016 167.32242188 44.75582031 168.14484375 44.79101562 168.9921875 C44.8724988 170.9943455 44.93794575 172.99714568 45 175 C48.38976016 164.515393 46.44503627 155.1388933 42.83984375 144.875 C42.02306671 142.07896325 41.83523647 139.89133416 42 137 C44.97 137.99 47.94 138.98 51 140 C49.35571532 138.35571532 47.25985159 137.40358346 45.25 136.25 C39.50266401 132.79670011 35.79057589 129.3110879 32.25 123.625 C29.0217103 118.57974096 24.88483821 115.37596597 20 112 C20.33 112.61875 20.66 113.2375 21 113.875 C22 116 22 116 22 118 C19.69 118 17.38 118 15 118 C15.33 118.99 15.66 119.98 16 121 C15.13938965 120.83701416 14.2787793 120.67402832 13.39208984 120.50610352 C10.10457607 120.01560286 7.04681148 119.88590687 3.7265625 119.90234375 C2.57285156 119.90556641 1.41914063 119.90878906 0.23046875 119.91210938 C-1.55423828 119.92467773 -1.55423828 119.92467773 -3.375 119.9375 C-5.19451172 119.94426758 -5.19451172 119.94426758 -7.05078125 119.95117188 C-10.03390507 119.96291646 -13.01692679 119.9793416 -16 120 C-14.51886719 120.18175781 -14.51886719 120.18175781 -13.0078125 120.3671875 C-11.72648437 120.53476563 -10.44515625 120.70234375 -9.125 120.875 C-7.84882813 121.03742188 -6.57265625 121.19984375 -5.2578125 121.3671875 C-2 122 -2 122 0 124 C-9.05608328 127.53442749 -20.30036382 127.47883857 -29.4375 124.125 C-37.88098355 120.02453945 -43.51317858 113.00252014 -49.125 105.6875 C-54.62533829 98.65192672 -60.33661853 95.70173565 -69 94 C-69 93.01 -69 92.02 -69 91 C-68.03320312 91.01160156 -67.06640625 91.02320313 -66.0703125 91.03515625 C-64.11738281 91.04869141 -64.11738281 91.04869141 -62.125 91.0625 C-60.21074219 91.07990234 -60.21074219 91.07990234 -58.2578125 91.09765625 C-55.20459116 91.07461307 -52.22949 90.84103708 -49.1953125 90.50390625 C-43.70488134 89.91237828 -38.26798763 89.85226104 -32.75 89.875 C-31.31914062 89.86919922 -31.31914062 89.86919922 -29.859375 89.86328125 C-25.12655165 89.86985462 -20.65342581 90.01622206 -16 91 C-17.21236328 90.23816406 -17.21236328 90.23816406 -18.44921875 89.4609375 C-32.52705944 80.39270236 -32.52705944 80.39270236 -35.49609375 71.51953125 C-37.95084382 59.24578091 -35.99253301 45.92128591 -29.49609375 35.203125 C-24.34251105 27.61403716 -18.31685455 21.26985254 -11.75 14.89453125 C-8.02092558 10.96946854 -5.01164837 6.70872386 -1.97265625 2.23828125 C-1.32167969 1.49964844 -0.67070312 0.76101562 0 0 Z M10 89 C11 91 11 91 11 91 Z M120 93 C120.99 95.64 121.98 98.28 123 101 C127.30691203 99.52334445 129.19540381 98.04367695 133 95 C128.71 94.34 124.42 93.68 120 93 Z M8 92 C7.12988281 92.2165625 7.12988281 92.2165625 6.2421875 92.4375 C1.73340325 93.50889428 -2.33054247 94.23945936 -7 94 C-1.09420801 99.03707694 -1.09420801 99.03707694 6 101 C7.56272189 96.60746227 7.56272189 96.60746227 8 92 Z M19 138 C19 138.66 19 139.32 19 140 C22.4019487 142.09350689 25.05272412 142.17942163 29 142 C29 141.67 29 141.34 29 141 C25.7 140.01 22.4 139.02 19 138 Z M99 141 C99 141.33 99 141.66 99 142 C102.41642759 142.25015873 102.41642759 142.25015873 106 142 C106.66 141.01 107.32 140.02 108 139 C104.61976483 139 102.16531063 139.87455622 99 141 Z M42 194 C42 194.33 42 194.66 42 195 C56.9877826 197.58648945 71.02114926 197.37961884 86 195 C82.33099207 192.55399471 79.3244965 192.55206037 75.0625 192.375 C74.29977783 192.33850342 73.53705566 192.30200684 72.7512207 192.2644043 C70.50110658 192.16336331 68.25099325 192.07873845 66 192 C64.88882813 191.95746094 63.77765625 191.91492188 62.6328125 191.87109375 C55.5739658 191.73066577 48.9176149 192.62628924 42 194 Z M85 200 C84.34 200.4125 83.68 200.825 83 201.25 C79.98470238 203.00892361 76.91914456 204.53562716 73.76953125 206.03515625 C71.82364788 206.98814231 71.82364788 206.98814231 70 209 C70.33 209.99 70.66 210.98 71 212 C71.66 211.01 72.32 210.02 73 209 C75.27734375 208.15625 75.27734375 208.15625 77.9375 207.5 C81.53209441 206.61061582 83.58958901 205.86385464 86 203 C85.67 202.01 85.34 201.02 85 200 Z M42 201 C41.95710245 202.93109581 41.95710245 202.93109581 43 205 C47.49740294 207.33864953 52.11307616 208.70346918 57 210 C56.34057604 206.91896309 56.34057604 206.91896309 54.109375 205.90234375 C53.33078125 205.58394531 52.5521875 205.26554688 51.75 204.9375 C50.94175781 204.60105469 50.13351563 204.26460937 49.30078125 203.91796875 C48.54152344 203.61503906 47.78226562 203.31210937 47 203 C45.989375 202.5875 44.97875 202.175 43.9375 201.75 C43.298125 201.5025 42.65875 201.255 42 201 Z M71 213 C72 215 72 215 72 215 Z " fill="#FEFEFD" transform="translate(184,80)"/>
<path d="M0 0 C1.66584886 1.49195541 3.32283536 2.99389429 4.96875 4.5078125 C7.07742652 6.44352603 9.22489453 8.32069976 11.39453125 10.1875 C18.82747411 16.69875794 25.05971717 23.82780383 31.20703125 31.5625 C31.99078125 32.51769531 32.77453125 33.47289063 33.58203125 34.45703125 C56.75668499 63.38820956 70.5795326 98.3426735 77.20703125 134.5625 C77.39249512 135.46846924 77.57795898 136.37443848 77.76904297 137.30786133 C79.81258519 148.4087983 79.60238514 159.6281299 79.58203125 170.875 C79.58181976 171.94664398 79.58160828 173.01828796 79.58139038 174.12240601 C79.55071678 189.65705815 78.97805801 204.42571631 75.20703125 219.5625 C74.84022814 221.18338635 74.47433905 222.80447982 74.109375 224.42578125 C69.8215618 242.62582502 63.12368775 260.14612631 54.20703125 276.5625 C53.67940186 277.55540039 53.67940186 277.55540039 53.14111328 278.56835938 C25.17895856 331.09950847 -23.71712718 369.37038771 -80.00390625 387.44140625 C-100.31991411 393.45243126 -120.76060154 396.09176773 -141.93188477 395.95361328 C-144.85805692 395.93748574 -147.7828526 395.95360305 -150.70898438 395.97265625 C-209.37877525 396.03625644 -261.84280754 370.40274186 -303.79296875 330.5625 C-305.03433594 329.38494141 -305.03433594 329.38494141 -306.30078125 328.18359375 C-311.94930536 322.68267916 -316.930728 316.76312758 -321.79296875 310.5625 C-322.51226562 309.66015625 -323.2315625 308.7578125 -323.97265625 307.828125 C-346.42012802 278.91002969 -360.33563689 244.43285711 -366.79296875 208.5625 C-366.97988281 207.56565186 -367.16679687 206.56880371 -367.359375 205.54174805 C-369.20554074 194.48206141 -369.19132558 183.4363413 -369.16796875 172.25 C-369.16709259 171.22782379 -369.16621643 170.20564758 -369.16531372 169.15249634 C-369.12131802 153.59826472 -368.49138047 138.73846654 -364.79296875 123.5625 C-364.55690918 122.55638672 -364.32084961 121.55027344 -364.07763672 120.51367188 C-357.33117485 92.41428845 -345.51035382 66.10828451 -328.79296875 42.5625 C-328.34083008 41.91958008 -327.88869141 41.27666016 -327.42285156 40.61425781 C-309.33108639 15.06923935 -286.39501623 -5.14824449 -259.79296875 -21.4375 C-259.09606934 -21.86562988 -258.39916992 -22.29375977 -257.68115234 -22.73486328 C-178.37840621 -70.76745177 -69.60550287 -60.74662069 0 0 Z M-300.84375 30.45214844 C-305.53975051 35.53634538 -309.71784562 40.97575 -313.79296875 46.5625 C-314.43363281 47.43132812 -315.07429688 48.30015625 -315.734375 49.1953125 C-317.47570923 51.61837714 -319.14592393 54.07449347 -320.79296875 56.5625 C-321.39238281 57.45195312 -321.99179687 58.34140625 -322.609375 59.2578125 C-337.91297053 82.93974012 -348.49707924 110.75116226 -352.41796875 138.6875 C-352.59972656 139.91146484 -352.59972656 139.91146484 -352.78515625 141.16015625 C-356.03401243 163.51369929 -355.13525242 185.26071435 -351.79296875 207.5625 C-351.62474609 208.71419678 -351.62474609 208.71419678 -351.453125 209.88916016 C-345.4996949 249.38575892 -325.28976004 289.36020514 -296.32421875 317.00390625 C-294.79296875 318.5625 -294.79296875 318.5625 -293.79296875 320.5625 C-293.13296875 320.5625 -292.47296875 320.5625 -291.79296875 320.5625 C-291.79296875 321.2225 -291.79296875 321.8825 -291.79296875 322.5625 C-289.37768633 325.14462759 -286.50812666 327.30559659 -283.79296875 329.5625 C-283.24012207 330.03155762 -282.68727539 330.50061523 -282.11767578 330.98388672 C-250.85597014 357.48382009 -213.61357446 375.13089433 -172.79296875 380.5625 C-172.09534424 380.6560376 -171.39771973 380.7495752 -170.67895508 380.84594727 C-162.59363965 381.80019907 -154.48439082 381.76395428 -146.35546875 381.75 C-145.21839478 381.74809662 -145.21839478 381.74809662 -144.05834961 381.74615479 C-102.09184712 381.61222856 -60.25790875 370.26929434 -25.79296875 345.5625 C-25.17196289 345.12502441 -24.55095703 344.68754883 -23.91113281 344.23681641 C6.23033115 322.90946967 30.89099993 294.24071664 46.20703125 260.5625 C46.54863281 259.81210449 46.89023437 259.06170898 47.2421875 258.28857422 C52.18625785 247.28984206 56.23809098 236.25119912 59.20703125 224.5625 C59.39249512 223.83708008 59.57795898 223.11166016 59.76904297 222.36425781 C66.4848546 195.55966468 68.06529975 165.84629745 63.20703125 138.5625 C63.05637207 137.71026855 62.90571289 136.85803711 62.75048828 135.97998047 C55.30533249 95.47861903 37.76768427 58.40240331 9.20703125 28.5625 C8.58296387 27.90588379 7.95889648 27.24926758 7.31591797 26.57275391 C-7.2279962 11.36332206 -22.63903826 -0.83852966 -40.79296875 -11.4375 C-41.44281738 -11.8200293 -42.09266602 -12.20255859 -42.76220703 -12.59667969 C-121.38189698 -58.26189202 -225.15729758 -42.38105494 -300.84375 30.45214844 Z " fill="#FDFDFD" transform="translate(394.79296875,78.4375)"/>
<path d="M0 0 C0 3 0 3 -2.375 5.6875 C-5 8 -5 8 -7 8 C-7 8.66 -7 9.32 -7 10 C-7.66 10 -8.32 10 -9 10 C-9 10.66 -9 11.32 -9 12 C-12.38940904 15.68847454 -16.12452876 18.84554667 -20 22 C-19.4530846 26.19551541 -18.08966629 28.63745026 -15.5625 32 C-13.13130652 35.24835873 -11.36148642 38.16868143 -10 42 C-9.28972656 41.98839844 -8.57945312 41.97679687 -7.84765625 41.96484375 C-6.92855469 41.95582031 -6.00945312 41.94679688 -5.0625 41.9375 C-4.14597656 41.92589844 -3.22945312 41.91429687 -2.28515625 41.90234375 C0 42 0 42 1 43 C1.07325168 45.86267567 1.09238205 48.700719 1.0625 51.5625 C1.05798828 52.36880859 1.05347656 53.17511719 1.04882812 54.00585938 C1.03700518 56.00393756 1.01906914 58.00197783 1 60 C6.28 60.33 11.56 60.66 17 61 C17.33 62.32 17.66 63.64 18 65 C13.32022791 66.83554604 9.14883127 67.28127806 4.17922974 67.24050903 C3.02610348 67.24307231 3.02610348 67.24307231 1.84968174 67.24568737 C-0.71603086 67.2489712 -3.28147962 67.23799692 -5.84716797 67.22705078 C-7.69039402 67.22648643 -9.53362052 67.2268037 -11.37684631 67.22793579 C-16.37430499 67.22850936 -21.37166756 67.21675428 -26.36910391 67.20278788 C-31.59413763 67.1902813 -36.81917359 67.18911007 -42.04421997 67.18673706 C-51.93572106 67.18052209 -61.82717791 67.16411101 -71.71865952 67.14403808 C-82.98097239 67.12167965 -94.24328737 67.11068579 -105.5056169 67.10064721 C-128.67043579 67.07974482 -151.83521541 67.04456847 -175 67 C-176.0625 65.125 -176.0625 65.125 -177 63 C-176.67 62.34 -176.34 61.68 -176 61 C-166.595 60.505 -166.595 60.505 -157 60 C-159.64 58.68 -162.28 57.36 -165 56 C-171.03002394 51.85706989 -175.89420954 46.44616212 -177.68359375 39.17578125 C-179.02936906 29.9214992 -178.73072795 20.9124402 -173.6640625 12.8828125 C-168.14323903 5.74613825 -159.83495354 1.47468551 -151 0 C-149.39237512 -0.08712078 -147.78185721 -0.13055762 -146.171875 -0.1328125 C-145.29015625 -0.13410156 -144.4084375 -0.13539063 -143.5 -0.13671875 C-142.5925 -0.13285156 -141.685 -0.12898438 -140.75 -0.125 C-139.82703125 -0.12886719 -138.9040625 -0.13273437 -137.953125 -0.13671875 C-137.0765625 -0.13542969 -136.2 -0.13414062 -135.296875 -0.1328125 C-134.49604492 -0.13168457 -133.69521484 -0.13055664 -132.87011719 -0.12939453 C-131 0 -131 0 -130 1 C-129.92674832 3.86267567 -129.90761795 6.700719 -129.9375 9.5625 C-129.94201172 10.36880859 -129.94652344 11.17511719 -129.95117188 12.00585938 C-129.96299482 14.00393756 -129.98093086 16.00197783 -130 18 C-133.66345721 19.8317286 -138.38484028 18.94691877 -142.43945312 18.78515625 C-147.75135012 18.6827358 -151.27707386 19.5272323 -156 22 C-159.05725241 24.955344 -159.83125578 27.78139455 -160 32 C-158.47218417 36.10097933 -156.89234176 38.87690449 -153 41 C-151.68 41 -150.36 41 -149 41 C-148.90912109 40.04287109 -148.90912109 40.04287109 -148.81640625 39.06640625 C-148.73261719 38.24011719 -148.64882812 37.41382813 -148.5625 36.5625 C-148.48128906 35.73878906 -148.40007812 34.91507812 -148.31640625 34.06640625 C-148 32 -148 32 -147 31 C-144.13530675 30.92669669 -141.30106326 30.90782169 -138.4375 30.9375 C-134.2609375 30.9684375 -134.2609375 30.9684375 -130 31 C-130 40.9 -130 50.8 -130 61 C-125.38 60.67 -120.76 60.34 -116 60 C-117.98 59.01 -119.96 58.02 -122 57 C-129.17390981 49.50000338 -129.37300713 43.31473982 -129.37060547 33.29980469 C-129.37495859 31.26931563 -129.41125909 29.24103982 -129.44921875 27.2109375 C-129.47482217 18.59112021 -129.0611909 11.37847143 -123 4.84375 C-122.34 4.4003125 -121.68 3.956875 -121 3.5 C-120.34 3.0359375 -119.68 2.571875 -119 2.09375 C-115.34128606 0.09289081 -111.95752915 -0.12760964 -107.83203125 -0.1328125 C-106.36926758 -0.13474609 -106.36926758 -0.13474609 -104.87695312 -0.13671875 C-103.86568359 -0.13285156 -102.85441406 -0.12898438 -101.8125 -0.125 C-100.27819336 -0.13080078 -100.27819336 -0.13080078 -98.71289062 -0.13671875 C-97.74158203 -0.13542969 -96.77027344 -0.13414062 -95.76953125 -0.1328125 C-94.43305542 -0.13112061 -94.43305542 -0.13112061 -93.06958008 -0.12939453 C-91 0 -91 0 -90 1 C-89.90013025 3.84335048 -89.86122119 6.65697163 -89.875 9.5 C-89.87113281 10.29792969 -89.86726563 11.09585937 -89.86328125 11.91796875 C-89.87339233 17.87339233 -89.87339233 17.87339233 -91 19 C-92.34267413 19.08631874 -93.68974322 19.10706473 -95.03515625 19.09765625 C-95.84404297 19.09443359 -96.65292969 19.09121094 -97.48632812 19.08789062 C-98.33646484 19.07951172 -99.18660156 19.07113281 -100.0625 19.0625 C-100.91650391 19.05798828 -101.77050781 19.05347656 -102.65039062 19.04882812 C-104.76695663 19.03700373 -106.88348685 19.01906769 -109 19 C-109.33 19.66 -109.66 20.32 -110 21 C-108.39318359 20.98259766 -108.39318359 20.98259766 -106.75390625 20.96484375 C-105.35677257 20.95546701 -103.95963701 20.94636669 -102.5625 20.9375 C-101.85544922 20.92912109 -101.14839844 20.92074219 -100.41992188 20.91210938 C-98.61306441 20.90346412 -96.80612397 20.94779989 -95 21 C-93.1144747 22.8855253 -93.86753311 25.57768831 -93.86328125 28.08203125 C-93.86714844 28.87996094 -93.87101562 29.67789062 -93.875 30.5 C-93.87113281 31.29792969 -93.86726563 32.09585938 -93.86328125 32.91796875 C-93.87339233 38.87339233 -93.87339233 38.87339233 -95 40 C-97.53049402 40.07313567 -100.03304837 40.09247527 -102.5625 40.0625 C-103.27341797 40.05798828 -103.98433594 40.05347656 -104.71679688 40.04882812 C-106.47790013 40.03700864 -108.23896036 40.01907263 -110 40 C-110 40.66 -110 41.32 -110 42 C-109.14450562 41.99214478 -109.14450562 41.99214478 -108.27172852 41.98413086 C-105.70199677 41.96341779 -103.13228253 41.9503581 -100.5625 41.9375 C-99.21575195 41.92493164 -99.21575195 41.92493164 -97.84179688 41.91210938 C-96.98779297 41.90888672 -96.13378906 41.90566406 -95.25390625 41.90234375 C-94.46314697 41.89710693 -93.6723877 41.89187012 -92.85766602 41.88647461 C-91 42 -91 42 -90 43 C-89.92674832 45.86267567 -89.90761795 48.700719 -89.9375 51.5625 C-89.94201172 52.36880859 -89.94652344 53.17511719 -89.95117188 54.00585938 C-89.96299482 56.00393756 -89.98093086 58.00197783 -90 60 C-85.71 60 -81.42 60 -77 60 C-78.423125 59.154375 -79.84625 58.30875 -81.3125 57.4375 C-85.73053814 54.81228893 -87.48528899 51.8100715 -89 47 C-89.51636717 42.27531838 -89.47356366 37.56053641 -89.44604492 32.81225586 C-89.43753292 30.57116829 -89.46634735 28.33263363 -89.49804688 26.09179688 C-89.53623052 18.57223843 -89.47886174 12.3555679 -85 6 C-83.03515625 4.16015625 -83.03515625 4.16015625 -81.0625 3.0625 C-80.41410156 2.68222656 -79.76570313 2.30195313 -79.09765625 1.91015625 C-73.83386139 -0.37376219 -68.42717538 -0.14628404 -62.796875 -0.1328125 C-61.47928192 -0.13424759 -61.47928192 -0.13424759 -60.1350708 -0.13571167 C-58.28601001 -0.13639019 -56.4369468 -0.13455885 -54.58789062 -0.13037109 C-51.7460401 -0.12499251 -48.90434579 -0.1303403 -46.0625 -0.13671875 C-44.26562465 -0.13605841 -42.4687494 -0.13477817 -40.671875 -0.1328125 C-39.81777039 -0.13483673 -38.96366577 -0.13686096 -38.0836792 -0.13894653 C-32.1149675 -0.1149675 -32.1149675 -0.1149675 -31 1 C-30.95919217 2.99958364 -30.95745644 5.00045254 -31 7 C-30.34 7 -29.68 7 -29 7 C-28.7525 6.401875 -28.505 5.80375 -28.25 5.1875 C-26.69593613 2.46788822 -25.75851564 1.54631079 -23 0 C-19.84232536 -0.53949271 -16.69807619 -0.64870347 -13.5 -0.75 C-12.64535156 -0.79253906 -11.79070312 -0.83507812 -10.91015625 -0.87890625 C-7.03565551 -1.04210675 -3.75145858 -1.08974986 0 0 Z M-51 4 C-51.33 8.62 -51.66 13.24 -52 18 C-53.464375 17.979375 -54.92875 17.95875 -56.4375 17.9375 C-61.36823058 17.93046615 -66.11236433 18.36933733 -71 19 C-70.67 19.66 -70.34 20.32 -70 21 C-66.72444392 21.47001033 -66.72444392 21.47001033 -62.9375 21.625 C-61.64714844 21.69976562 -60.35679687 21.77453125 -59.02734375 21.8515625 C-57.52880859 21.92503906 -57.52880859 21.92503906 -56 22 C-54.16207027 27.7308675 -54.94515652 34.07690436 -55 40 C-60.28 40 -65.56 40 -71 40 C-71 40.66 -71 41.32 -71 42 C-64.73191505 45.13404247 -57.00793201 43 -50 43 C-50 30.13 -50 17.26 -50 4 C-50.33 4 -50.66 4 -51 4 Z M-31 44 C-31.33 49.61 -31.66 55.22 -32 61 C-25.07 61 -18.14 61 -11 61 C-11 60.67 -11 60.34 -11 60 C-12.051875 59.7525 -13.10375 59.505 -14.1875 59.25 C-21.37667314 57.11774023 -24.54674951 52.06445509 -28.546875 46.046875 C-29.26617187 45.03367187 -29.26617187 45.03367187 -30 44 C-30.33 44 -30.66 44 -31 44 Z M-51 45 C-51.33 50.28 -51.66 55.56 -52 61 C-51.01 60.67 -50.02 60.34 -49 60 C-49.33 55.05 -49.66 50.1 -50 45 C-50.33 45 -50.66 45 -51 45 Z M-44 60 C-44 60.33 -44 60.66 -44 61 C-41.69 61 -39.38 61 -37 61 C-37 60.67 -37 60.34 -37 60 C-39.31 60 -41.62 60 -44 60 Z " fill="#FDFCFB" transform="translate(328,323)"/>
<path d="M0 0 C0 3 0 3 -2.375 5.6875 C-5 8 -5 8 -7 8 C-7 8.66 -7 9.32 -7 10 C-7.66 10 -8.32 10 -9 10 C-9 10.66 -9 11.32 -9 12 C-12.38940904 15.68847454 -16.12452876 18.84554667 -20 22 C-19.4530846 26.19551541 -18.08966629 28.63745026 -15.5625 32 C-13.6129265 34.60485812 -12.12176891 36.63153043 -11.09765625 39.73046875 C-10.20614653 42.23138596 -10.20614653 42.23138596 -7.6171875 42.92578125 C-6.25980469 43.11720703 -6.25980469 43.11720703 -4.875 43.3125 C-2.461875 43.6528125 -2.461875 43.6528125 0 44 C0 48.95 0 53.9 0 59 C-18.3426782 59.47032508 -18.3426782 59.47032508 -23.109375 55.0390625 C-26.18323986 51.21578431 -28.23782456 47.57064255 -30 43 C-30.495 42.505 -30.495 42.505 -31 42 C-31.33 47.61 -31.66 53.22 -32 59 C-37.07718207 61.53859104 -43.32353788 60 -49 60 C-49 40.86 -49 21.72 -49 2 C-43.72 2 -38.44 2 -33 2 C-32 3 -32 3 -31.9375 6.0625 C-31.958125 7.031875 -31.97875 8.00125 -32 9 C-29.77762727 8.11797637 -29.77762727 8.11797637 -28.625 5.625 C-26.83552834 2.73431502 -25.96316464 1.64413838 -23 0 C-19.84189501 -0.5373086 -16.69817285 -0.64870041 -13.5 -0.75 C-12.64535156 -0.79253906 -11.79070312 -0.83507812 -10.91015625 -0.87890625 C-7.03565551 -1.04210675 -3.75145858 -1.08974986 0 0 Z " fill="#E3E4E8" transform="translate(328,323)"/>
<path d="M0 0 C0.88171875 -0.00128906 1.7634375 -0.00257813 2.671875 -0.00390625 C3.579375 -0.00003906 4.486875 0.00382812 5.421875 0.0078125 C6.34484375 0.00394531 7.2678125 0.00007813 8.21875 -0.00390625 C9.0953125 -0.00261719 9.971875 -0.00132812 10.875 0 C11.67583008 0.00112793 12.47666016 0.00225586 13.30175781 0.00341797 C15.171875 0.1328125 15.171875 0.1328125 16.171875 1.1328125 C16.24512668 3.99548817 16.26425705 6.8335315 16.234375 9.6953125 C16.22986328 10.50162109 16.22535156 11.30792969 16.22070312 12.13867188 C16.20888018 14.13675006 16.19094414 16.13479033 16.171875 18.1328125 C12.50841779 19.9645411 7.78703472 19.07973127 3.73242188 18.91796875 C-1.57947512 18.8155483 -5.10519886 19.6600448 -9.828125 22.1328125 C-12.88537741 25.0881565 -13.65938078 27.91420705 -13.828125 32.1328125 C-12.14784614 36.80025379 -9.99329798 39.4552013 -5.828125 42.1328125 C-3.14305171 42.92227859 -3.14305171 42.92227859 -0.828125 43.1328125 C-0.83972656 42.50632812 -0.85132813 41.87984375 -0.86328125 41.234375 C-0.87230469 40.41710937 -0.88132813 39.59984375 -0.890625 38.7578125 C-0.90222656 37.94570313 -0.91382813 37.13359375 -0.92578125 36.296875 C-0.828125 34.1328125 -0.828125 34.1328125 0.171875 32.1328125 C2.48431292 32.10595838 4.7968377 32.08648409 7.109375 32.0703125 C8.39714844 32.05871094 9.68492187 32.04710937 11.01171875 32.03515625 C14.171875 32.1328125 14.171875 32.1328125 15.171875 33.1328125 C15.25935707 35.05948757 15.27884834 36.98933111 15.26953125 38.91796875 C15.26630859 40.08779297 15.26308594 41.25761719 15.25976562 42.46289062 C15.24719727 44.31043945 15.24719727 44.31043945 15.234375 46.1953125 C15.22986328 47.43087891 15.22535156 48.66644531 15.22070312 49.93945312 C15.20887108 53.00395367 15.19238673 56.06835971 15.171875 59.1328125 C12.10931539 59.1598616 9.0469964 59.17967548 5.984375 59.1953125 C5.12005859 59.20369141 4.25574219 59.21207031 3.36523438 59.22070312 C-0.85977183 59.23689089 -4.6950905 59.09868469 -8.828125 58.1328125 C-10.2654784 58.08636302 -11.70299205 58.04460749 -13.140625 58.0078125 C-18.87234644 57.40598175 -22.06193952 54.27476252 -25.828125 50.1328125 C-32.17199011 42.1195092 -32.57492174 34.04593702 -31.828125 24.1328125 C-30.64373468 17.08030648 -27.31211054 11.70440114 -21.828125 7.1328125 C-14.7872932 2.84303418 -8.30069952 0.01162563 0 0 Z " fill="#E3E4E8" transform="translate(181.828125,322.8671875)"/>
<path d="M0 0 C1.46276367 -0.00193359 1.46276367 -0.00193359 2.95507812 -0.00390625 C3.96634766 -0.00003906 4.97761719 0.00382812 6.01953125 0.0078125 C7.04240234 0.00394531 8.06527344 0.00007813 9.11914062 -0.00390625 C10.09044922 -0.00261719 11.06175781 -0.00132812 12.0625 0 C13.39897583 0.00169189 13.39897583 0.00169189 14.76245117 0.00341797 C16.83203125 0.1328125 16.83203125 0.1328125 17.83203125 1.1328125 C17.931901 3.97616298 17.97081006 6.78978413 17.95703125 9.6328125 C17.96283203 10.82970703 17.96283203 10.82970703 17.96875 12.05078125 C17.95863892 18.00620483 17.95863892 18.00620483 16.83203125 19.1328125 C15.48935712 19.21913124 14.14228803 19.23987723 12.796875 19.23046875 C11.98798828 19.22724609 11.17910156 19.22402344 10.34570312 19.22070312 C9.49556641 19.21232422 8.64542969 19.20394531 7.76953125 19.1953125 C6.91552734 19.19080078 6.06152344 19.18628906 5.18164062 19.18164062 C3.06507462 19.16981623 0.9485444 19.15188019 -1.16796875 19.1328125 C-1.49796875 19.7928125 -1.82796875 20.4528125 -2.16796875 21.1328125 C-0.56115234 21.11541016 -0.56115234 21.11541016 1.078125 21.09765625 C2.47525868 21.08827951 3.87239424 21.07917919 5.26953125 21.0703125 C5.97658203 21.06193359 6.68363281 21.05355469 7.41210938 21.04492188 C9.21896684 21.03627662 11.02590728 21.08061239 12.83203125 21.1328125 C13.83203125 22.1328125 13.83203125 22.1328125 13.9296875 25.94921875 C13.92394263 27.53128297 13.91092718 29.11332281 13.89453125 30.6953125 C13.87390625 33.4796875 13.85328125 36.2640625 13.83203125 39.1328125 C5.41703125 39.6278125 5.41703125 39.6278125 -3.16796875 40.1328125 C-2.83796875 41.1228125 -2.50796875 42.1128125 -2.16796875 43.1328125 C3.43381571 43.85240932 8.24436973 44.22308792 13.83203125 43.1328125 C14.82203125 43.4628125 15.81203125 43.7928125 16.83203125 44.1328125 C16.83203125 49.0828125 16.83203125 54.0328125 16.83203125 59.1328125 C12.7906956 59.38201819 8.75032481 59.60786068 4.70703125 59.8203125 C2.99386719 59.92956055 2.99386719 59.92956055 1.24609375 60.04101562 C-9.384664 60.56637284 -9.384664 60.56637284 -14.16796875 57.1328125 C-21.34187856 49.63281588 -21.54097588 43.44755232 -21.53857422 33.43261719 C-21.54292734 31.40212813 -21.57922784 29.37385232 -21.6171875 27.34375 C-21.64279092 18.72393271 -21.22915965 11.51128393 -15.16796875 4.9765625 C-14.50796875 4.533125 -13.84796875 4.0896875 -13.16796875 3.6328125 C-12.17796875 2.93671875 -12.17796875 2.93671875 -11.16796875 2.2265625 C-7.50925481 0.22570331 -4.1254979 0.00520286 0 0 Z " fill="#E3E4E9" transform="translate(220.16796875,322.8671875)"/>
<path d="M0 0 C1.54010742 0.02030273 1.54010742 0.02030273 3.11132812 0.04101562 C5.63694489 0.07625679 8.16229056 0.13006053 10.6875 0.1875 C10.3575 5.1375 10.0275 10.0875 9.6875 15.1875 C2.375 15.125 2.375 15.125 0.0847168 15.09741211 C-2.9964493 15.08462034 -5.36855196 15.20618399 -8.3125 16.1875 C-8.6425 17.8375 -8.9725 19.4875 -9.3125 21.1875 C-4.0325 21.1875 1.2475 21.1875 6.6875 21.1875 C6.6875 26.1375 6.6875 31.0875 6.6875 36.1875 C1.4075 36.1875 -3.8725 36.1875 -9.3125 36.1875 C-8.9825 38.1675 -8.6525 40.1475 -8.3125 42.1875 C-2.0425 42.1875 4.2275 42.1875 10.6875 42.1875 C10.6875 46.8075 10.6875 51.4275 10.6875 56.1875 C6.96033309 58.05108345 2.4763931 57.37225292 -1.625 57.375 C-2.57568359 57.38724609 -3.52636719 57.39949219 -4.50585938 57.41210938 C-10.54190367 57.42476356 -14.79092328 57.32621952 -19.55078125 53.2890625 C-27.13086813 44.23863861 -26.11370996 35.32022141 -25.3125 24.1875 C-25.23766362 22.82953152 -25.16457032 21.4714651 -25.09375 20.11328125 C-24.58534483 12.00603448 -24.58534483 12.00603448 -23.3125 8.1875 C-22.6525 8.1875 -21.9925 8.1875 -21.3125 8.1875 C-20.9825 7.1975 -20.6525 6.2075 -20.3125 5.1875 C-18.5625 4.1875 -18.5625 4.1875 -16.3125 3.1875 C-15.67441406 2.67574219 -15.03632813 2.16398437 -14.37890625 1.63671875 C-9.67802219 -0.58497295 -5.1255285 -0.12789227 0 0 Z " fill="#E1E3E7" transform="translate(265.3125,324.8125)"/>
<path d="M0 0 C1.18239258 0.00676758 1.18239258 0.00676758 2.38867188 0.01367188 C4.32164761 0.02538688 6.25458393 0.04332002 8.1875 0.0625 C8.1875 1.0525 8.1875 2.0425 8.1875 3.0625 C6.87394531 3.02769531 5.56039063 2.99289062 4.20703125 2.95703125 C2.47136699 2.92888534 0.73568885 2.90158604 -1 2.875 C-1.86431641 2.84986328 -2.72863281 2.82472656 -3.61914062 2.79882812 C-8.58325706 2.74176932 -11.72709731 2.92957077 -15.8125 6.0625 C-16.555 6.413125 -17.2975 6.76375 -18.0625 7.125 C-19.99303285 7.94253585 -19.99303285 7.94253585 -20.8125 10.0625 C-21.4725 10.0625 -22.1325 10.0625 -22.8125 10.0625 C-23.51156871 19.00059275 -23.93467703 27.90942169 -24 36.875 C-24.01289063 37.7402832 -24.02578125 38.60556641 -24.0390625 39.49707031 C-24.04035156 40.30885742 -24.04164063 41.12064453 -24.04296875 41.95703125 C-24.04707764 42.67737549 -24.05118652 43.39771973 -24.05541992 44.13989258 C-23.91633074 46.38994786 -23.91633074 46.38994786 -21.8125 49.0625 C-20.8225 49.7225 -19.8325 50.3825 -18.8125 51.0625 C-18.8125 51.7225 -18.8125 52.3825 -18.8125 53.0625 C-18.13332102 55.19149566 -18.13332102 55.19149566 -16.8125 57.0625 C-14.97370626 57.7655709 -14.97370626 57.7655709 -12.81640625 57.80859375 C-12.01219238 57.8638623 -11.20797852 57.91913086 -10.37939453 57.97607422 C-6.16628629 58.11792702 -1.96525619 58.16751228 2.25 58.125 C3.11560547 58.12048828 3.98121094 58.11597656 4.87304688 58.11132812 C6.97789539 58.09969913 9.08270758 58.08177073 11.1875 58.0625 C10.6925 59.0525 10.6925 59.0525 10.1875 60.0625 C6.37559633 60.23866334 2.56475502 60.34396835 -1.25 60.4375 C-2.31927734 60.48777344 -3.38855469 60.53804688 -4.49023438 60.58984375 C-11.15929074 60.71221176 -15.47179126 59.83975813 -20.99243164 56.04541016 C-27.01570884 49.48322942 -26.30669644 41.18316356 -26.25854492 32.87475586 C-26.25003292 30.63366829 -26.27884735 28.39513363 -26.31054688 26.15429688 C-26.34873052 18.63473843 -26.29136174 12.4180679 -21.8125 6.0625 C-19.84765625 4.22265625 -19.84765625 4.22265625 -17.875 3.125 C-17.22660156 2.74472656 -16.57820312 2.36445313 -15.91015625 1.97265625 C-10.73145227 -0.27434194 -5.53866079 -0.06035422 0 0 Z " fill="#F7F2F3" transform="translate(264.8125,322.9375)"/>
<path d="M0 0 C0.33 0 0.66 0 1 0 C1 4.62 1 9.24 1 14 C-0.485 13.979375 -1.97 13.95875 -3.5 13.9375 C-8.0945496 13.93095506 -12.45855007 14.3271926 -17 15 C-10.07 15.495 -10.07 15.495 -3 16 C-0.19135435 23.02161412 -0.78190575 27.69143448 -2 35 C-7.28 35 -12.56 35 -18 35 C-18.33 35.66 -18.66 36.32 -19 37 C-19 35.68 -19 34.36 -19 33 C-13.72 33 -8.44 33 -3 33 C-3 28.05 -3 23.1 -3 18 C-8.28 18 -13.56 18 -19 18 C-19 16.35 -19 14.7 -19 13 C-14.40767665 11.17144572 -11.02641732 10.87485538 -6.125 11.375 C-4.97257812 11.48585938 -3.82015625 11.59671875 -2.6328125 11.7109375 C-1.76398438 11.80632812 -0.89515625 11.90171875 0 12 C0 8.04 0 4.08 0 0 Z " fill="#F7F5F4" transform="translate(275,328)"/>
<path d="M0 0 C1.46276367 -0.00193359 1.46276367 -0.00193359 2.95507812 -0.00390625 C3.96634766 -0.00003906 4.97761719 0.00382812 6.01953125 0.0078125 C7.04240234 0.00394531 8.06527344 0.00007813 9.11914062 -0.00390625 C10.09044922 -0.00261719 11.06175781 -0.00132812 12.0625 0 C13.39897583 0.00169189 13.39897583 0.00169189 14.76245117 0.00341797 C16.83203125 0.1328125 16.83203125 0.1328125 17.83203125 1.1328125 C17.931901 3.97616298 17.97081006 6.78978413 17.95703125 9.6328125 C17.96283203 10.82970703 17.96283203 10.82970703 17.96875 12.05078125 C17.95863892 18.00620483 17.95863892 18.00620483 16.83203125 19.1328125 C13.96935558 19.20606418 11.13131225 19.22519455 8.26953125 19.1953125 C7.46322266 19.19080078 6.65691406 19.18628906 5.82617188 19.18164062 C3.82809369 19.16981768 1.83005342 19.15188164 -0.16796875 19.1328125 C-0.49796875 18.4728125 -0.82796875 17.8128125 -1.16796875 17.1328125 C4.77203125 17.1328125 10.71203125 17.1328125 16.83203125 17.1328125 C16.83203125 12.1828125 16.83203125 7.2328125 16.83203125 2.1328125 C3.46703125 2.6278125 3.46703125 2.6278125 -10.16796875 3.1328125 C-10.82796875 4.4528125 -11.48796875 5.7728125 -12.16796875 7.1328125 C-12.82796875 7.7928125 -13.48796875 8.4528125 -14.16796875 9.1328125 C-14.16796875 8.4728125 -14.16796875 7.8128125 -14.16796875 7.1328125 C-14.82796875 6.8028125 -15.48796875 6.4728125 -16.16796875 6.1328125 C-15.09047433 5.31258501 -14.00567367 4.50195081 -12.91796875 3.6953125 C-12.3146875 3.24285156 -11.71140625 2.79039062 -11.08984375 2.32421875 C-7.53875524 0.12283258 -4.11036635 0.00518378 0 0 Z " fill="#F9F6F6" transform="translate(220.16796875,322.8671875)"/>
<path d="M0 0 C-0.33 0.99 -0.66 1.98 -1 3 C-1.99 3.45375 -2.98 3.9075 -4 4.375 C-5.485 5.179375 -5.485 5.179375 -7 6 C-7.74524194 8.47608101 -7.74524194 8.47608101 -8 11 C-8.97850195 12.02104551 -9.97980427 13.0206121 -11 14 C-12.10636395 16.39068734 -12.10636395 16.39068734 -13 19 C-13.34675781 19.74894531 -13.69351563 20.49789063 -14.05078125 21.26953125 C-15.15406026 24.443161 -15.19862663 26.96248852 -15.125 30.3125 C-15.10695312 31.38113281 -15.08890625 32.44976562 -15.0703125 33.55078125 C-15.04710937 34.35902344 -15.02390625 35.16726563 -15 36 C-18.56830912 30.64753631 -17.60375809 23.61705984 -16.5703125 17.42578125 C-14.57882706 10.38182347 -10.08959059 5.1970422 -4.1875 1 C-2 0 -2 0 0 0 Z " fill="#EDE6E9" transform="translate(167,327)"/>
<path d="M0 0 C2.5 0.0625 2.5 0.0625 5 1 C6.4375 3.375 6.4375 3.375 7 6 C6.01 7.485 6.01 7.485 5 9 C2.07475195 9.45003816 0.60689298 9.40459532 -1.875 7.75 C-3 6 -3 6 -2.8125 3.9375 C-2 2 -2 2 0 0 Z " fill="#FEFCFC" transform="translate(389,114)"/>
<path d="M0 0 C2.375 0.6875 2.375 0.6875 3.375 1.6875 C3.41563832 3.35367115 3.417721 5.02138095 3.375 6.6875 C1.07721327 8.0825848 -0.1042967 8.76188619 -2.8125 8.375 C-4.625 7.6875 -4.625 7.6875 -5.625 6.6875 C-5.875 4.25 -5.875 4.25 -5.625 1.6875 C-2.625 -0.3125 -2.625 -0.3125 0 0 Z " fill="#FDFDFC" transform="translate(176.625,68.3125)"/>
<path d="M0 0 C3.29714793 0.32971479 4.6226839 0.6226839 7 3 C6.44444444 7.55555556 6.44444444 7.55555556 5 9 C2.5625 9.1875 2.5625 9.1875 0 9 C-2 7 -2 7 -2.25 4.5 C-2 2 -2 2 0 0 Z " fill="#FDFCFC" transform="translate(101,370)"/>
<path d="M0 0 C1.2684375 0.12375 1.2684375 0.12375 2.5625 0.25 C4.5625 3.25 4.5625 3.25 4.1875 5.9375 C3.98125 6.700625 3.775 7.46375 3.5625 8.25 C1.5825 8.58 -0.3975 8.91 -2.4375 9.25 C-4.4375 6.25 -4.4375 6.25 -4.125 3.625 C-3.16976704 0.32510431 -3.16976704 0.32510431 0 0 Z " fill="#FDFDFC" transform="translate(92.4375,355.75)"/>
<path d="M0 0 C3.0625 -0.25 3.0625 -0.25 6 0 C7 1 7 1 7.25 3.9375 C7.1675 4.948125 7.085 5.95875 7 7 C4 9 4 9 1.9375 8.9375 C0 8 0 8 -1.375 5.625 C-1.58125 4.75875 -1.7875 3.8925 -2 3 C-1.34 2.01 -0.68 1.02 0 0 Z " fill="#FDFDFC" transform="translate(65,184)"/>
<path d="M0 0 C2 3 2 3 1.75 5.0625 C1 7 1 7 -1 9 C-5.55555556 8.44444444 -5.55555556 8.44444444 -7 7 C-7.04080783 5.00041636 -7.04254356 2.99954746 -7 1 C-4.46578263 -0.26710868 -2.80561762 -0.28056176 0 0 Z " fill="#FDFCFC" transform="translate(381,102)"/>
<path d="M0 0 C2.375 0.75 2.375 0.75 3.375 1.75 C3.625 4.1875 3.625 4.1875 3.375 6.75 C0.375 8.75 0.375 8.75 -2.3125 8.375 C-3.075625 8.16875 -3.83875 7.9625 -4.625 7.75 C-5.3125 5.4375 -5.3125 5.4375 -5.625 2.75 C-3.9659358 -0.015107 -3.22812218 -0.30744021 0 0 Z " fill="#FDFCFC" transform="translate(144.625,85.25)"/>
<path d="M0 0 C4.68322981 1.44099379 4.68322981 1.44099379 6.0625 3.875 C6 6 6 6 4.0625 8.25 C3.381875 8.8275 2.70125 9.405 2 10 C-0.62187494 8.95125002 -1.79371361 8.35068687 -3.25 5.875 C-3.4975 5.25625 -3.745 4.6375 -4 4 C-2.68 2.68 -1.36 1.36 0 0 Z " fill="#FDFCFC" transform="translate(128,395)"/>
<path d="M0 0 C2.5 -0.3125 2.5 -0.3125 5 0 C7 2 7 2 7.25 4.5 C7 7 7 7 5 9 C2.5 8.9375 2.5 8.9375 0 8 C-1.4375 5.625 -1.4375 5.625 -2 3 C-1.34 2.01 -0.68 1.02 0 0 Z " fill="#FDFDFC" transform="translate(65,308)"/>
<path d="M0 0 C2.5 0.25 2.5 0.25 4.5 2.25 C4.17028521 5.54714793 3.8773161 6.8726839 1.5 9.25 C-1.125 8.875 -1.125 8.875 -3.5 8.25 C-4.125 5.375 -4.125 5.375 -4.5 2.25 C-2.5 0.25 -2.5 0.25 0 0 Z " fill="#FDFCFC" transform="translate(59.5,272.75)"/>
<path d="M0 0 C2.5 0.25 2.5 0.25 4.5 2.25 C4.17028521 5.54714793 3.8773161 6.8726839 1.5 9.25 C-1.125 8.875 -1.125 8.875 -3.5 8.25 C-4.125 5.375 -4.125 5.375 -4.5 2.25 C-2.5 0.25 -2.5 0.25 0 0 Z " fill="#FDFDFB" transform="translate(59.5,218.75)"/>
<path d="M0 0 C0.763125 0.20625 1.52625 0.4125 2.3125 0.625 C2.6425 2.605 2.9725 4.585 3.3125 6.625 C0.3125 8.625 0.3125 8.625 -2.375 8.25 C-3.138125 8.04375 -3.90125 7.8375 -4.6875 7.625 C-5.0175 5.645 -5.3475 3.665 -5.6875 1.625 C-2.6875 -0.375 -2.6875 -0.375 0 0 Z " fill="#FDFCFB" transform="translate(403.6875,128.375)"/>
<path d="M0 0 C2.5 0.25 2.5 0.25 4.5 2.25 C4.4375 4.75 4.4375 4.75 3.5 7.25 C1.125 8.6875 1.125 8.6875 -1.5 9.25 C-2.49 8.59 -3.48 7.93 -4.5 7.25 C-4.8125 4.75 -4.8125 4.75 -4.5 2.25 C-2.5 0.25 -2.5 0.25 0 0 Z " fill="#FDFCFB" transform="translate(192.5,61.75)"/>
<path d="M0 0 C1 1 1 1 1.25 3.4375 C1.1675 4.283125 1.085 5.12875 1 6 C-2 8 -2 8 -4.0625 7.75 C-6 7 -6 7 -8 5 C-7.75 2.4375 -7.75 2.4375 -7 0 C-4.31633121 -1.3418344 -2.84719317 -0.73004953 0 0 Z " fill="#FDFCFC" transform="translate(231,438)"/>
<path d="M0 0 C0.66 1.65 1.32 3.3 2 5 C0.68 6.32 -0.64 7.64 -2 9 C-4.4375 8.25 -4.4375 8.25 -7 7 C-8 5.0625 -8 5.0625 -8 3 C-5.85915306 -0.33020635 -3.75910189 -0.30479204 0 0 Z " fill="#FDFDFC" transform="translate(336,420)"/>
<path d="M0 0 C0.763125 0.20625 1.52625 0.4125 2.3125 0.625 C2.9375 3.5 2.9375 3.5 3.3125 6.625 C2.6525 7.285 1.9925 7.945 1.3125 8.625 C-1.8125 8.25 -1.8125 8.25 -4.6875 7.625 C-5.0175 5.645 -5.3475 3.665 -5.6875 1.625 C-2.6875 -0.375 -2.6875 -0.375 0 0 Z " fill="#FDFDFB" transform="translate(144.6875,406.375)"/>
<path d="M0 0 C1.75 1.4375 1.75 1.4375 2.6875 3.375 C2.75 5.4375 2.75 5.4375 1.6875 7.25 C-0.25 8.4375 -0.25 8.4375 -3.4375 8.125 C-4.365625 7.898125 -5.29375 7.67125 -6.25 7.4375 C-6.58 5.7875 -6.91 4.1375 -7.25 2.4375 C-2.87857143 -0.71964286 -2.87857143 -0.71964286 0 0 Z " fill="#FEFCFC" transform="translate(366.25,401.5625)"/>
<path d="M0 0 C3.125 0.375 3.125 0.375 6 1 C6.6875 2.75 6.6875 2.75 7 5 C5.5625 7.25 5.5625 7.25 4 9 C-0.875 8.125 -0.875 8.125 -2 7 C-2.1875 4.5625 -2.1875 4.5625 -2 2 C-1.34 1.34 -0.68 0.68 0 0 Z " fill="#FDFCFC" transform="translate(433,192)"/>
<path d="M0 0 C2.625 0.625 2.625 0.625 5 2 C5.9375 3.9375 5.9375 3.9375 6 6 C5.01 7.485 5.01 7.485 4 9 C0.9375 9.25 0.9375 9.25 -2 9 C-3 8 -3 8 -3.25 5.0625 C-3.1675 4.051875 -3.085 3.04125 -3 2 C-2.01 1.34 -1.02 0.68 0 0 Z " fill="#FEFCFB" transform="translate(421,158)"/>
<path d="M0 0 C2.375 0.75 2.375 0.75 3.375 1.75 C3.625 4.1875 3.625 4.1875 3.375 6.75 C0.375 8.75 0.375 8.75 -2.3125 8.375 C-3.075625 8.16875 -3.83875 7.9625 -4.625 7.75 C-5.3125 5.4375 -5.3125 5.4375 -5.625 2.75 C-3.9659358 -0.015107 -3.22812218 -0.30744021 0 0 Z " fill="#FDFDFC" transform="translate(116.625,108.25)"/>
<path d="M0 0 C3.0625 0.1875 3.0625 0.1875 5.0625 2.1875 C4.50694444 6.74305556 4.50694444 6.74305556 3.0625 8.1875 C0.625 8.375 0.625 8.375 -1.9375 8.1875 C-3.9375 6.1875 -3.9375 6.1875 -4.125 3.625 C-3.8509967 0.06295712 -3.62735131 0.23153306 0 0 Z " fill="#FDFCFC" transform="translate(174.9375,423.8125)"/>
<path d="M0 0 C1.4540625 0.0309375 1.4540625 0.0309375 2.9375 0.0625 C3.5975 1.7125 4.2575 3.3625 4.9375 5.0625 C3.6175 6.3825 2.2975 7.7025 0.9375 9.0625 C-2.9375 7.1875 -2.9375 7.1875 -4.0625 6.0625 C-4.1875 3.5625 -4.1875 3.5625 -4.0625 1.0625 C-3.0625 0.0625 -3.0625 0.0625 0 0 Z " fill="#FDFDFC" transform="translate(159.0625,415.9375)"/>
<path d="M0 0 C2.5625 0.1875 2.5625 0.1875 4.5625 2.1875 C4.6875 4.8125 4.6875 4.8125 4.5625 7.1875 C2.9125 7.8475 1.2625 8.5075 -0.4375 9.1875 C-2.5 7.4375 -2.5 7.4375 -4.4375 5.1875 C-4.13562163 1.66558568 -3.60952985 0.27765614 0 0 Z " fill="#FDFDFC" transform="translate(115.4375,383.8125)"/>
<path d="M0 0 C0.598125 0.20625 1.19625 0.4125 1.8125 0.625 C2.4375 3.5 2.4375 3.5 2.8125 6.625 C0.8125 8.625 0.8125 8.625 -1.6875 8.9375 C-2.925 8.7828125 -2.925 8.7828125 -4.1875 8.625 C-6.1875 5.625 -6.1875 5.625 -6 3.5625 C-4.75850591 0.6020141 -3.20602027 -0.54960347 0 0 Z " fill="#FDFCFB" transform="translate(64.1875,290.375)"/>
<path d="M0 0 C1.4540625 0.0309375 1.4540625 0.0309375 2.9375 0.0625 C3.2675 2.3725 3.5975 4.6825 3.9375 7.0625 C0.9375 9.0625 0.9375 9.0625 -1.1875 8.75 C-3.0625 8.0625 -3.0625 8.0625 -4.0625 7.0625 C-4.1875 4.0625 -4.1875 4.0625 -4.0625 1.0625 C-3.0625 0.0625 -3.0625 0.0625 0 0 Z " fill="#FDFCFC" transform="translate(58.0625,254.9375)"/>
<path d="M0 0 C2.625 -0.1875 2.625 -0.1875 5 0 C6.1875 2.25 6.1875 2.25 7 5 C5.625 7.3125 5.625 7.3125 4 9 C2.35 8.67 0.7 8.34 -1 8 C-1.625 5.6875 -1.625 5.6875 -2 3 C-1.34 2.01 -0.68 1.02 0 0 Z " fill="#FEFCFC" transform="translate(72,167)"/>
<path d="M0 0 C2.5625 0.1875 2.5625 0.1875 4.5625 2.1875 C4.23278521 5.48464793 3.9398161 6.8101839 1.5625 9.1875 C-1.37203261 8.82068342 -2.30187246 8.32312754 -4.4375 6.1875 C-3.71780303 0.28598485 -3.71780303 0.28598485 0 0 Z " fill="#FDFCFB" transform="translate(82.4375,150.8125)"/>
<path d="M0 0 C2.625 0.625 2.625 0.625 5 2 C5.9375 3.9375 5.9375 3.9375 6 6 C5.01 7.485 5.01 7.485 4 9 C1.5 9.3125 1.5 9.3125 -1 9 C-3 7 -3 7 -3.3125 4.5 C-3.209375 3.675 -3.10625 2.85 -3 2 C-2.01 1.34 -1.02 0.68 0 0 Z " fill="#FDFCFC" transform="translate(363,90)"/>
<path d="M0 0 C3.125 0.375 3.125 0.375 6 1 C6.75 2.75 6.75 2.75 7 5 C5.3125 7.3125 5.3125 7.3125 3 9 C0.78155374 8.80984746 -0.41522155 8.58477845 -2 7 C-2.1875 4.5625 -2.1875 4.5625 -2 2 C-1.34 1.34 -0.68 0.68 0 0 Z " fill="#FDFCFC" transform="translate(157,76)"/>
<path d="M0 0 C2.6875 0.875 2.6875 0.875 5 2 C5.125 4.375 5.125 4.375 5 7 C4.34 7.66 3.68 8.32 3 9 C-0.29714793 8.67028521 -1.6226839 8.3773161 -4 6 C-3.8125 4 -3.8125 4 -3 2 C-2.01 1.34 -1.02 0.68 0 0 Z " fill="#FDFCFA" transform="translate(209,434)"/>
<path d="M0 0 C2.5625 0.1875 2.5625 0.1875 4.5625 2.1875 C4.4375 4.6875 4.4375 4.6875 3.5625 7.1875 C1.5 8.5 1.5 8.5 -0.4375 9.1875 C-1.7575 8.1975 -3.0775 7.2075 -4.4375 6.1875 C-3.3735 0.2595 -3.3735 0.2595 0 0 Z " fill="#FEFCFB" transform="translate(192.4375,429.8125)"/>
<path d="M0 0 C3.125 0.375 3.125 0.375 6 1 C6.75 2.75 6.75 2.75 7 5 C5.0625 7.25 5.0625 7.25 3 9 C0.525 8.01 0.525 8.01 -2 7 C-2.125 4.625 -2.125 4.625 -2 2 C-1.34 1.34 -0.68 0.68 0 0 Z " fill="#FDFCFB" transform="translate(376,390)"/>
<path d="M0 0 C1.4540625 0.0309375 1.4540625 0.0309375 2.9375 0.0625 C3.5975 1.7125 4.2575 3.3625 4.9375 5.0625 C3.6175 6.3825 2.2975 7.7025 0.9375 9.0625 C-1.5625 7.875 -1.5625 7.875 -4.0625 6.0625 C-4.4375 3.4375 -4.4375 3.4375 -4.0625 1.0625 C-3.0625 0.0625 -3.0625 0.0625 0 0 Z " fill="#FEFCFC" transform="translate(435.0625,299.9375)"/>
<path d="M0 0 C0.93423645 3.01031744 1.04449911 3.86650268 0 7 C-1.98 7.33 -3.96 7.66 -6 8 C-8 5 -8 5 -7.75 2.375 C-7.5025 1.59125 -7.255 0.8075 -7 0 C-4.3333581 -1.33332095 -2.83319697 -0.67102033 0 0 Z " fill="#FEFCFC" transform="translate(433,176)"/>
<path d="M0 0 C2.6875 0.875 2.6875 0.875 5 2 C5.125 4.375 5.125 4.375 5 7 C4.34 7.66 3.68 8.32 3 9 C-0.29714793 8.67028521 -1.6226839 8.3773161 -4 6 C-3.8125 4 -3.8125 4 -3 2 C-2.01 1.34 -1.02 0.68 0 0 Z " fill="#FDFCFB" transform="translate(348,80)"/>
<path d="M0 0 C1.65 0.99 3.3 1.98 5 3 C4.125 7.875 4.125 7.875 3 9 C0.5625 9.1875 0.5625 9.1875 -2 9 C-2.66 8.34 -3.32 7.68 -4 7 C-3.8125 4.5 -3.8125 4.5 -3 2 C-2.01 1.34 -1.02 0.68 0 0 Z " fill="#FDFCFC" transform="translate(227,54)"/>
<path d="M0 0 C2.75 0.8125 2.75 0.8125 5 2 C5.1875 4.375 5.1875 4.375 5 7 C2 9 2 9 -0.6875 8.625 C-1.450625 8.41875 -2.21375 8.2125 -3 8 C-3.33 6.35 -3.66 4.7 -4 3 C-2.3125 1.375 -2.3125 1.375 0 0 Z " fill="#FCFDFC" transform="translate(245,53)"/>
<path d="M0 0 C1 1 1 1 1.0625 3.5625 C1.041875 4.366875 1.02125 5.17125 1 6 C-1.25 7.1875 -1.25 7.1875 -4 8 C-6.3125 6.625 -6.3125 6.625 -8 5 C-7.625 2.5625 -7.625 2.5625 -7 0 C-4.31633121 -1.3418344 -2.84719317 -0.73004953 0 0 Z " fill="#FCFCFC" transform="translate(267,439)"/>
<path d="M0 0 C0.6875 2.3125 0.6875 2.3125 1 5 C-0.1875 6.875 -0.1875 6.875 -2 8 C-4.97397616 7.72963853 -5.85446026 7.14553974 -8 5 C-7.75 2.4375 -7.75 2.4375 -7 0 C-4.3333581 -1.33332095 -2.83319697 -0.67102033 0 0 Z " fill="#FDFDFC" transform="translate(285,437)"/>
<path d="M0 0 C2.75 1.375 2.75 1.375 5 3 C4.42655063 5.86724686 4.1385485 6.8614515 2 9 C-2.55555556 8.44444444 -2.55555556 8.44444444 -4 7 C-4.04063832 5.33382885 -4.042721 3.66611905 -4 2 C-2.3125 0.8125 -2.3125 0.8125 0 0 Z " fill="#FDFCFB" transform="translate(299,432)"/>
<path d="M0 0 C2.5625 0.1875 2.5625 0.1875 4.5625 2.1875 C4.00694444 6.74305556 4.00694444 6.74305556 2.5625 8.1875 C0.125 8.375 0.125 8.375 -2.4375 8.1875 C-3.0975 7.5275 -3.7575 6.8675 -4.4375 6.1875 C-3.71780303 0.28598485 -3.71780303 0.28598485 0 0 Z " fill="#FEFCFB" transform="translate(316.4375,426.8125)"/>
<path d="M0 0 C2.375 -0.125 2.375 -0.125 5 0 C5.66 0.66 6.32 1.32 7 2 C6.625 5.125 6.625 5.125 6 8 C4.25 8.75 4.25 8.75 2 9 C-0.25 7.0625 -0.25 7.0625 -2 5 C-1.34 3.35 -0.68 1.7 0 0 Z " fill="#FDFCFA" transform="translate(80,341)"/>
<path d="M0 0 C2.5 0.125 2.5 0.125 5 1 C6.3125 3.0625 6.3125 3.0625 7 5 C6.01 6.32 5.02 7.64 4 9 C-0.875 8.125 -0.875 8.125 -2 7 C-2.1875 4.5625 -2.1875 4.5625 -2 2 C-1.34 1.34 -0.68 0.68 0 0 Z " fill="#FDFCFC" transform="translate(420,333)"/>
<path d="M0 0 C2.5625 0.1875 2.5625 0.1875 4.5625 2.1875 C4.00694444 6.74305556 4.00694444 6.74305556 2.5625 8.1875 C0.125 8.375 0.125 8.375 -2.4375 8.1875 C-3.0975 7.5275 -3.7575 6.8675 -4.4375 6.1875 C-3.71780303 0.28598485 -3.71780303 0.28598485 0 0 Z " fill="#FDFCFB" transform="translate(442.4375,245.8125)"/>
<path d="M0 0 C0.6875 2.3125 0.6875 2.3125 1 5 C-0.1875 6.875 -0.1875 6.875 -2 8 C-4.0625 7.9375 -4.0625 7.9375 -6 7 C-7.3125 5.125 -7.3125 5.125 -8 3 C-7.67 2.01 -7.34 1.02 -7 0 C-4.3333581 -1.33332095 -2.83319697 -0.67102033 0 0 Z " fill="#FDFCFA" transform="translate(66,202)"/>
<path d="M0 0 C3.75283733 1.45271122 3.75283733 1.45271122 4.875 3.9375 C5 6 5 6 3 9 C0.5 9.3125 0.5 9.3125 -2 9 C-2.66 8.34 -3.32 7.68 -4 7 C-3.8125 4.5 -3.8125 4.5 -3 2 C-2.01 1.34 -1.02 0.68 0 0 Z " fill="#FDFCFC" transform="translate(92,135)"/>
<path d="M0 0 C2.4375 0.75 2.4375 0.75 5 2 C6 3.9375 6 3.9375 6 6 C4.875 7.8125 4.875 7.8125 3 9 C0.3125 8.6875 0.3125 8.6875 -2 8 C-2.6875 5.6875 -2.6875 5.6875 -3 3 C-1.5625 1.1875 -1.5625 1.1875 0 0 Z " fill="#FDFCFB" transform="translate(102,121)"/>
<path d="M0 0 C2.5625 0.1875 2.5625 0.1875 4.5625 2.1875 C4.00694444 6.74305556 4.00694444 6.74305556 2.5625 8.1875 C0.125 8.375 0.125 8.375 -2.4375 8.1875 C-3.0975 7.5275 -3.7575 6.8675 -4.4375 6.1875 C-3.71780303 0.28598485 -3.71780303 0.28598485 0 0 Z " fill="#FEFCFB" transform="translate(316.4375,64.8125)"/>
<path d="M0 0 C1.4540625 0.0309375 1.4540625 0.0309375 2.9375 0.0625 C4.0625 2.375 4.0625 2.375 4.9375 5.0625 C3.9475 6.5475 3.9475 6.5475 2.9375 8.0625 C0.4375 8.375 0.4375 8.375 -2.0625 8.0625 C-4.0625 6.0625 -4.0625 6.0625 -4.25 3.5 C-3.97031732 -0.13587487 -3.72751987 0.07607183 0 0 Z " fill="#FDFCFB" transform="translate(299.0625,59.9375)"/>
<path d="M0 0 C3.0625 -0.25 3.0625 -0.25 6 0 C7 1 7 1 7.1875 3.4375 C7 6 7 6 5 8 C2.375 8.125 2.375 8.125 0 8 C-1.125 5.6875 -1.125 5.6875 -2 3 C-1.34 2.01 -0.68 1.02 0 0 Z " fill="#FEFCFB" transform="translate(207,58)"/>
<path d="M0 0 C2.5625 0.1875 2.5625 0.1875 4.5625 2.1875 C4.00694444 6.74305556 4.00694444 6.74305556 2.5625 8.1875 C0.125 8.375 0.125 8.375 -2.4375 8.1875 C-3.0975 7.5275 -3.7575 6.8675 -4.4375 6.1875 C-3.71780303 0.28598485 -3.71780303 0.28598485 0 0 Z " fill="#FDFDFC" transform="translate(281.4375,55.8125)"/>
<path d="M0 0 C2.5625 0.1875 2.5625 0.1875 4.5625 2.1875 C4.00694444 6.74305556 4.00694444 6.74305556 2.5625 8.1875 C0.125 8.375 0.125 8.375 -2.4375 8.1875 C-3.0975 7.5275 -3.7575 6.8675 -4.4375 6.1875 C-3.71780303 0.28598485 -3.71780303 0.28598485 0 0 Z " fill="#FDFCFB" transform="translate(263.4375,53.8125)"/>
<path d="M0 0 C0.94875 0.04125 1.8975 0.0825 2.875 0.125 C3.5 3 3.5 3 3.875 6.125 C3.215 6.785 2.555 7.445 1.875 8.125 C-1.25 7.75 -1.25 7.75 -4.125 7.125 C-4.75 4.75 -4.75 4.75 -5.125 2.125 C-3.125 0.125 -3.125 0.125 0 0 Z " fill="#FDFCFB" transform="translate(246.125,438.875)"/>
<path d="M0 0 C2.475 0.99 2.475 0.99 5 2 C5.125 4.375 5.125 4.375 5 7 C4.34 7.66 3.68 8.32 3 9 C0.5 8.875 0.5 8.875 -2 8 C-3.3125 5.9375 -3.3125 5.9375 -4 4 C-2.68 2.68 -1.36 1.36 0 0 Z " fill="#FDFCFA" transform="translate(390,377)"/>
<path d="M0 0 C2.5625 0.1875 2.5625 0.1875 4.5625 2.1875 C4.00694444 6.74305556 4.00694444 6.74305556 2.5625 8.1875 C0.125 8.4375 0.125 8.4375 -2.4375 8.1875 C-4.4375 5.1875 -4.4375 5.1875 -4.125 3.0625 C-3.12124957 0.32499884 -2.99341211 0.23026247 0 0 Z " fill="#FEFCFB" transform="translate(402.4375,363.8125)"/>
<path d="M0 0 C1.2065625 0.0309375 1.2065625 0.0309375 2.4375 0.0625 C3.0975 1.7125 3.7575 3.3625 4.4375 5.0625 C3.1175 6.3825 1.7975 7.7025 0.4375 9.0625 C-1.2125 8.0725 -2.8625 7.0825 -4.5625 6.0625 C-3.48963568 0.08511307 -3.48963568 0.08511307 0 0 Z " fill="#FDFCFB" transform="translate(74.5625,324.9375)"/>
<path d="M0 0 C0.6875 1.75 0.6875 1.75 1 4 C-0.4375 6.25 -0.4375 6.25 -2 8 C-4.86724686 7.42655063 -5.8614515 7.1385485 -8 5 C-7.75 2.4375 -7.75 2.4375 -7 0 C-4.3333581 -1.33332095 -2.83319697 -0.67102033 0 0 Z " fill="#FDFCFB" transform="translate(443,283)"/>
<path d="M0 0 C4.55555556 0.55555556 4.55555556 0.55555556 6 2 C6.1875 4.4375 6.1875 4.4375 6 7 C5.34 7.66 4.68 8.32 4 9 C-0.55555556 8.44444444 -0.55555556 8.44444444 -2 7 C-2.1875 4.5625 -2.1875 4.5625 -2 2 C-1.34 1.34 -0.68 0.68 0 0 Z " fill="#FDFCFB" transform="translate(411,143)"/>
<path d="M0 0 C2.4375 0.9375 2.4375 0.9375 3.75 3 C4.0903125 3.9590625 4.0903125 3.9590625 4.4375 4.9375 C3.4475 6.4225 3.4475 6.4225 2.4375 7.9375 C-0.6875 8.125 -0.6875 8.125 -3.5625 7.9375 C-4.2225 6.2875 -4.8825 4.6375 -5.5625 2.9375 C-3.72865255 0.52454283 -3.10791561 -0.07580282 0 0 Z " fill="#FEFCFC" transform="translate(333.5625,72.0625)"/>
<path d="M0 0 C2.475 0.99 2.475 0.99 5 2 C5.125 4.375 5.125 4.375 5 7 C4.34 7.66 3.68 8.32 3 9 C0.5 8.875 0.5 8.875 -2 8 C-3.3125 5.9375 -3.3125 5.9375 -4 4 C-2.68 2.68 -1.36 1.36 0 0 Z " fill="#FDFDFC" transform="translate(348,411)"/>
<path d="M0 0 C2.5625 0.1875 2.5625 0.1875 4.5625 2.1875 C4.00694444 6.74305556 4.00694444 6.74305556 2.5625 8.1875 C0.125 8.4375 0.125 8.4375 -2.4375 8.1875 C-4.4375 5.1875 -4.4375 5.1875 -4.125 3.0625 C-3.12124957 0.32499884 -2.99341211 0.23026247 0 0 Z " fill="#FDFCFB" transform="translate(429.4375,316.8125)"/>
<path d="M0 0 C4.55555556 0.55555556 4.55555556 0.55555556 6 2 C6.1875 4.4375 6.1875 4.4375 6 7 C5.34 7.66 4.68 8.32 4 9 C-0.55555556 8.44444444 -0.55555556 8.44444444 -2 7 C-2.1875 4.5625 -2.1875 4.5625 -2 2 C-1.34 1.34 -0.68 0.68 0 0 Z " fill="#FEFCFC" transform="translate(440,264)"/>
<path d="M0 0 C2.375 -0.125 2.375 -0.125 5 0 C5.66 0.66 6.32 1.32 7 2 C6.875 4.5 6.875 4.5 6 7 C3.9375 8.3125 3.9375 8.3125 2 9 C0.68 7.68 -0.64 6.36 -2 5 C-1.34 3.35 -0.68 1.7 0 0 Z " fill="#FCFCFB" transform="translate(55,237)"/>
<path d="M0 0 C1.2065625 0.0309375 1.2065625 0.0309375 2.4375 0.0625 C3.5625 2.375 3.5625 2.375 4.4375 5.0625 C3.4475 6.5475 3.4475 6.5475 2.4375 8.0625 C-0.0625 8.375 -0.0625 8.375 -2.5625 8.0625 C-3.2225 7.4025 -3.8825 6.7425 -4.5625 6.0625 C-3.83457637 0.09352625 -3.83457637 0.09352625 0 0 Z " fill="#FCFDFB" transform="translate(439.5625,209.9375)"/>
<path d="M0 0 C2.5 0.125 2.5 0.125 5 1 C6.3125 3.0625 6.3125 3.0625 7 5 C5 8 5 8 3.0625 8.8125 C1 9 1 9 -2 7 C-2.3125 4.5 -2.3125 4.5 -2 2 C-1.34 1.34 -0.68 0.68 0 0 Z " fill="#FDFCFB" transform="translate(127,96)"/>
<path d="M0 0 C3 0.125 3 0.125 4 1.125 C4.1875 3.5625 4.1875 3.5625 4 6.125 C2 8.125 2 8.125 -0.625 8.25 C-1.40875 8.20875 -2.1925 8.1675 -3 8.125 C-3.38063221 5.7989143 -3.71269945 3.46444736 -4 1.125 C-3 0.125 -3 0.125 0 0 Z " fill="#FDFCFC" transform="translate(442,227.875)"/>
<path d="M0 0 C4.55555556 0.55555556 4.55555556 0.55555556 6 2 C6.125 4.5 6.125 4.5 6 7 C5 8 5 8 2 8.125 C-1 8 -1 8 -2 7 C-2.1875 4.5625 -2.1875 4.5625 -2 2 C-1.34 1.34 -0.68 0.68 0 0 Z " fill="#FEFCFB" transform="translate(411,349)"/>
<path d="M0 0 C0 3 0 3 -2.5 5.6875 C-3.325 6.450625 -4.15 7.21375 -5 8 C-5.66 7.67 -6.32 7.34 -7 7 C-5.35 5.02 -3.7 3.04 -2 1 C-4.89611544 1.14134727 -7.7918081 1.2879153 -10.6875 1.4375 C-11.50412109 1.47681641 -12.32074219 1.51613281 -13.16210938 1.55664062 C-17.19655811 1.76898003 -21.05747309 2.04447922 -25 3 C-23 0 -23 0 -21.09228516 -0.44824219 C-19.95218994 -0.49706543 -19.95218994 -0.49706543 -18.7890625 -0.546875 C-17.95632813 -0.58683594 -17.12359375 -0.62679688 -16.265625 -0.66796875 C-15.39421875 -0.69503906 -14.5228125 -0.72210938 -13.625 -0.75 C-12.76132812 -0.79253906 -11.89765625 -0.83507812 -11.0078125 -0.87890625 C-7.10361209 -1.04158127 -3.77951722 -1.10070527 0 0 Z " fill="#FDFBFB" transform="translate(328,323)"/>
<path d="M0 0 C0 0.33 0 0.66 0 1 C-1.11117187 1.04898437 -2.22234375 1.09796875 -3.3671875 1.1484375 C-10.75870438 1.50912092 -17.91169996 1.86255783 -25.1171875 3.6953125 C-27 4 -27 4 -30 3 C-20.45623291 -1.21934966 -10.19145658 -0.28927715 0 0 Z " fill="#FCF8F8" transform="translate(197,323)"/>
<path d="M0 0 C0.66 0.99 1.32 1.98 2 3 C1.52643889 4.58981229 1.0442622 6.17764319 0.515625 7.75 C-0.55004344 12.40018955 -0.14018833 17.2569615 0 22 C-2.35779354 18.46330969 -2.26931688 16.87443306 -2.25 12.6875 C-2.25515625 11.57761719 -2.2603125 10.46773438 -2.265625 9.32421875 C-1.99363456 5.9203384 -1.21230021 3.17988268 0 0 Z " fill="#F9F2F2" transform="translate(152,341)"/>
<path d="M0 0 C6.41144414 0.49318801 6.41144414 0.49318801 9.25 2.9375 C9.8275 3.618125 10.405 4.29875 11 5 C11.99 5.66 12.98 6.32 14 7 C7.50966018 6.66429277 4.61192971 5.61192971 0 1 C0 0.67 0 0.34 0 0 Z " fill="#F5EEF0" transform="translate(203,376)"/>
<path d="M0 0 C1.875 0.1875 1.875 0.1875 4 1 C5.25 3.5625 5.25 3.5625 6 6 C5.34 6 4.68 6 4 6 C4.515625 6.78375 5.03125 7.5675 5.5625 8.375 C6.036875 9.24125 6.51125 10.1075 7 11 C6.67 11.66 6.34 12.32 6 13 C2.75400791 9.01628243 1.1090483 4.99071733 0 0 Z " fill="#F1ECEE" transform="translate(297,362)"/>
<path d="M0 0 C5.94 0 11.88 0 18 0 C18.33 0.66 18.66 1.32 19 2 C15.17189179 3.27603607 11.76524893 2.86283987 7.8125 2.5625 C7.06291016 2.51029297 6.31332031 2.45808594 5.54101562 2.40429688 C3.69362918 2.27486216 1.84675629 2.13813482 0 2 C0 1.34 0 0.68 0 0 Z " fill="#F9F2F4" transform="translate(257,365)"/>
<path d="M0 0 C3.96 0 7.92 0 12 0 C12 0.99 12 1.98 12 3 C7.45194365 3.17835515 4.1205746 2.99785435 0 1 C0 0.67 0 0.34 0 0 Z " fill="#F8F1F1" transform="translate(166,380)"/>
<path d="M0 0 C1.32 0 2.64 0 4 0 C4 0.66 4 1.32 4 2 C3.34 2 2.68 2 2 2 C2 2.66 2 3.32 2 4 C0.35 4.33 -1.3 4.66 -3 5 C-1.125 1.125 -1.125 1.125 0 0 Z " fill="#F0E9E9" transform="translate(317,331)"/>
<path d="M0 0 C-1 3 -1 3 -3.875 4.5625 C-4.90625 5.036875 -5.9375 5.51125 -7 6 C-7.99 6.66 -8.98 7.32 -10 8 C-8.48502075 3.75805811 -4.70198172 0 0 0 Z " fill="#FAF5F4" transform="translate(167,327)"/>
</svg>
