<svg width="16" height="16" viewBox="0 0 16 16" fill="none" xmlns="http://www.w3.org/2000/svg">
  <path d="M8 0C3.58 0 0 3.58 0 8c0 3.54 2.29 6.54 5.47 7.61.4.07.55-.17.55-.38 0-.19-.01-.68-.01-1.34-2.23.49-2.7-1.07-2.7-1.07-.36-.9-.88-1.14-.88-1.14-.72-.49.05-.48.05-.48.8.06 1.22.83 1.22.83.71 1.21 1.86.86 2.31.66.07-.51.28-.86.51-1.06-1.78-.2-3.65-.89-3.65-3.96 0-.87.31-1.59.82-2.15-.08-.2-.35-1.02.08-2.12 0 0 .67-.22 2.2.84.64-.18 1.33-.27 2.01-.27.68 0 1.37.09 2.01.27 1.53-1.06 2.2-.84 2.2-.84.43 1.1.16 1.92.08 2.12.51.56.82 1.28.82 2.15 0 3.08-1.87 3.76-3.66 3.96.29.25.54.75.54 1.51 0 1.09-.01 1.97-.01 2.23 0 .21.15.46.56.38A8.007 8.007 0 0016 8c0-4.42-3.58-8-8-8z" fill="#fff"/>
</svg>
